<svg width="788" height="196" viewBox="0 0 788 196" fill="none" xmlns="http://www.w3.org/2000/svg">
<rect width="788" height="196" fill="white"/>
<circle cx="78" cy="60" r="33" fill="#C748DE"/>
<circle cx="161" cy="60" r="33" fill="#95A0AA"/>
<circle cx="244" cy="60" r="33" fill="#E599A6"/>
<path d="M335.28 55.848H370.8V61.896H335.28V55.848ZM336.048 86.856H376.464V93H328.944V25.8H375.024V31.944H336.048V86.856ZM382.411 93L413.131 25.8H420.139L450.859 93H443.371L415.147 29.928H418.027L389.803 93H382.411ZM394.507 75.048L396.619 69.288H435.691L437.803 75.048H394.507ZM480.503 93.576C475.511 93.576 470.711 92.776 466.103 91.176C461.559 89.512 458.039 87.4 455.543 84.84L458.327 79.368C460.695 81.672 463.863 83.624 467.831 85.224C471.863 86.76 476.087 87.528 480.503 87.528C484.727 87.528 488.151 87.016 490.775 85.992C493.463 84.904 495.415 83.464 496.631 81.672C497.911 79.88 498.551 77.896 498.551 75.72C498.551 73.096 497.783 70.984 496.247 69.384C494.775 67.784 492.823 66.536 490.391 65.64C487.959 64.68 485.271 63.848 482.327 63.144C479.383 62.44 476.439 61.704 473.495 60.936C470.551 60.104 467.831 59.016 465.335 57.672C462.903 56.328 460.919 54.568 459.383 52.392C457.911 50.152 457.175 47.24 457.175 43.656C457.175 40.328 458.039 37.288 459.767 34.536C461.559 31.72 464.279 29.48 467.927 27.816C471.575 26.088 476.247 25.224 481.943 25.224C485.719 25.224 489.463 25.768 493.175 26.856C496.887 27.88 500.087 29.32 502.775 31.176L500.375 36.84C497.495 34.92 494.423 33.512 491.159 32.616C487.959 31.72 484.855 31.272 481.847 31.272C477.815 31.272 474.487 31.816 471.863 32.904C469.239 33.992 467.287 35.464 466.007 37.32C464.791 39.112 464.183 41.16 464.183 43.464C464.183 46.088 464.919 48.2 466.391 49.8C467.927 51.4 469.911 52.648 472.343 53.544C474.839 54.44 477.559 55.24 480.503 55.944C483.447 56.648 486.359 57.416 489.239 58.248C492.183 59.08 494.871 60.168 497.303 61.512C499.799 62.792 501.783 64.52 503.255 66.696C504.791 68.872 505.559 71.72 505.559 75.24C505.559 78.504 504.663 81.544 502.871 84.36C501.079 87.112 498.327 89.352 494.615 91.08C490.967 92.744 486.263 93.576 480.503 93.576ZM535.664 93V68.04L537.296 72.456L508.784 25.8H516.368L541.424 66.792H537.392L562.448 25.8H569.552L541.04 72.456L542.672 68.04V93H535.664Z" fill="#2B2D2F"/>
<path d="M53.1299 155H49.3945V122.876H67.2803V126.172H53.1299V137.949H66.4233V141.223H53.1299V155ZM100.503 138.894C100.503 141.37 100.188 143.625 99.5581 145.662C98.9282 147.683 97.9907 149.426 96.7456 150.891C95.5151 152.341 93.9844 153.462 92.1533 154.253C90.3223 155.044 88.1982 155.439 85.7812 155.439C83.291 155.439 81.1157 155.044 79.2554 154.253C77.4097 153.462 75.8716 152.334 74.6411 150.869C73.4253 149.404 72.5098 147.654 71.8945 145.618C71.2939 143.582 70.9937 141.326 70.9937 138.85C70.9937 135.569 71.5356 132.69 72.6196 130.215C73.7036 127.739 75.3442 125.813 77.5415 124.436C79.7534 123.059 82.522 122.371 85.8472 122.371C89.0259 122.371 91.6992 123.052 93.8672 124.414C96.0498 125.776 97.6978 127.695 98.811 130.171C99.939 132.632 100.503 135.54 100.503 138.894ZM74.9268 138.894C74.9268 141.619 75.3149 143.977 76.0913 145.969C76.8677 147.961 78.0542 149.5 79.6509 150.583C81.2622 151.667 83.3057 152.209 85.7812 152.209C88.2715 152.209 90.3076 151.667 91.8896 150.583C93.4863 149.5 94.6655 147.961 95.4272 145.969C96.189 143.977 96.5698 141.619 96.5698 138.894C96.5698 134.749 95.6982 131.511 93.9551 129.182C92.2266 126.838 89.5239 125.667 85.8472 125.667C83.3569 125.667 81.3062 126.201 79.6948 127.271C78.0835 128.34 76.8823 129.863 76.0913 131.841C75.3149 133.804 74.9268 136.155 74.9268 138.894ZM116.345 122.876C118.982 122.876 121.157 123.206 122.871 123.865C124.6 124.509 125.889 125.498 126.738 126.831C127.588 128.164 128.013 129.863 128.013 131.929C128.013 133.628 127.705 135.049 127.09 136.191C126.475 137.319 125.669 138.235 124.673 138.938C123.677 139.641 122.615 140.183 121.487 140.564L130.298 155H125.947L118.081 141.597H111.401V155H107.666V122.876H116.345ZM116.125 126.106H111.401V138.433H116.499C119.121 138.433 121.047 137.898 122.278 136.829C123.523 135.759 124.146 134.185 124.146 132.104C124.146 129.922 123.486 128.376 122.168 127.468C120.864 126.56 118.85 126.106 116.125 126.106ZM153.325 155H135.439V122.876H153.325V126.172H139.175V136.565H152.512V139.817H139.175V151.704H153.325V155ZM181.89 155H177.649L168.97 140.85L160.159 155H156.182L166.882 138.257L156.929 122.876H161.082L169.102 135.686L177.166 122.876H181.121L171.189 138.191L181.89 155ZM218.298 155L214.343 144.805H201.467L197.534 155H193.755L206.323 122.744H209.685L222.166 155H218.298ZM213.223 141.487L209.465 131.357C209.377 131.094 209.231 130.662 209.026 130.061C208.835 129.46 208.638 128.838 208.433 128.193C208.228 127.549 208.059 127.029 207.927 126.633C207.781 127.234 207.62 127.834 207.444 128.435C207.283 129.021 207.122 129.57 206.96 130.083C206.799 130.581 206.66 131.006 206.543 131.357L202.72 141.487H213.223ZM226.626 155V122.876H230.361V151.66H244.622V155H226.626ZM268.022 155H250.137V122.876H268.022V126.172H253.872V136.565H267.209V139.817H253.872V151.704H268.022V155ZM283.821 122.876C286.458 122.876 288.633 123.206 290.347 123.865C292.075 124.509 293.364 125.498 294.214 126.831C295.063 128.164 295.488 129.863 295.488 131.929C295.488 133.628 295.181 135.049 294.565 136.191C293.95 137.319 293.145 138.235 292.148 138.938C291.152 139.641 290.09 140.183 288.962 140.564L297.773 155H293.423L285.557 141.597H278.877V155H275.142V122.876H283.821ZM283.601 126.106H278.877V138.433H283.975C286.597 138.433 288.523 137.898 289.753 136.829C290.999 135.759 291.621 134.185 291.621 132.104C291.621 129.922 290.962 128.376 289.644 127.468C288.34 126.56 286.326 126.106 283.601 126.106ZM312.781 155H309.023V126.172H298.916V122.876H322.844V126.172H312.781V155Z" fill="#2B2D2F"/>
</svg>
